<svg xmlns="http://www.w3.org/2000/svg" viewBox="0 0 943.99 233.57"><defs><style>.cls-1{fill:#fff;}.cls-2{fill:#473bf0;}.cls-3{fill:#ff4800;}.cls-4{fill:none;}.cls-5{fill:#f7f8f9;}.cls-6{fill:#4c4c4c;}</style></defs><title>logo-white</title><g id="图层_2" data-name="图层 2"><g id="图层_1-2" data-name="图层 1"><path class="cls-1" d="M185.65,196.45c-.52-1.3-1-2.66-1.43-4-.07-.22-.13-.45-.22-.69A53.31,53.31,0,0,1,220,125.57,50.36,50.36,0,0,1,227.2,124a.22.22,0,0,0,0-.13,11.43,11.43,0,0,0,2.56-.48,14.29,14.29,0,0,0,9.72-17.54,1.11,1.11,0,0,0-.07-.22,11.92,11.92,0,0,0-.74-2,13.75,13.75,0,0,0-3.1-4.33,14.11,14.11,0,0,0-11.06-3.91v0a79.88,79.88,0,0,0-12.68,2.69,82.09,82.09,0,0,0-58.27,86.76c.11,1.11.24,2.17.41,3.23.05.59.16,1.17.26,1.71.29,1.76.61,3.52,1,5.25.09.41.18.83.29,1.22.3,1.23.6,2.43.95,3.68s.78,2.41,1.19,3.6a56.76,56.76,0,0,0,2.24,5.68c.6,1.46.8,3.26,2,4.3,14.18,12.42,24-6.42,40.31,1.19.39.22.81.39,1.24.59a.81.81,0,0,0,.2.08l-13.3-13.7a0,0,0,0,1,0,0"/><path class="cls-1" d="M503.44,82.41c-.28-.4-.53-.81-.8-1.22-.68-1.09-1.38-2.14-2.13-3.18a17,17,0,0,0-26.4,21.43.19.19,0,0,1-.13.06,63.21,63.21,0,1,1-106-.34,10.82,10.82,0,0,1,.75-1.11,16.58,16.58,0,0,0,2.52-8.87,17,17,0,0,0-31.67-8.65.08.08,0,0,0-.07,0,97.24,97.24,0,1,0,164,1.9Z"/><path class="cls-2" d="M403,57.73a16.64,16.64,0,0,1-2.52,8.88q-.4.54-.75,1.11a17,17,0,0,1-30.78-10,17.1,17.1,0,0,1,17-17A17,17,0,0,1,403,57.73Z"/><line class="cls-3" x1="0.22" y1="79.97" x2="0.2" y2="79.97"/><path class="cls-1" d="M32.74,130a.5.5,0,0,0,.18,0c-.09.91-.13,1.84-.18,2.77v5.6a60.62,60.62,0,0,0,60.51,57.87,59.79,59.79,0,0,0,8.41-.58.3.3,0,0,1,0,.13,14.46,14.46,0,0,1,3-.28,16.22,16.22,0,0,1,16.24,16,.77.77,0,0,1,0,.26,14.21,14.21,0,0,1-.2,2.37,15.91,15.91,0,0,1-2,5.74,16.09,16.09,0,0,1-10.82,7.81s0,0,0,0a91.41,91.41,0,0,1-14.7,1.17A93.4,93.4,0,0,1,1.63,153c-.22-1.22-.44-2.43-.61-3.64a1.86,1.86,0,0,0,0-.33,16.08,16.08,0,0,1-.76-4.81v-2.91c0-.46-.09-.91-.11-1.39C0,138.52,0,137.09,0,135.64s0-2.89.11-4.32c0-.5.06-1,.11-1.47V80C10.6,84.29,23,91.25,32.72,102.22"/><path class="cls-1" d="M757.92,94.07a17.65,17.65,0,0,1,9.27,3.12,10.2,10.2,0,0,1,2.46,2.22,16.82,16.82,0,0,1,3.84,10.53,14.83,14.83,0,0,1-2,7.8,15.62,15.62,0,0,1-5.79,5.79,15.15,15.15,0,0,1-7.77,2.19,14.28,14.28,0,0,1-7.8-2.14,15.64,15.64,0,0,1-5.7-5.84,15.82,15.82,0,0,1-2-7.89,16.13,16.13,0,0,1,2.1-8,14.38,14.38,0,0,1,5.83-5.79A15.87,15.87,0,0,1,757.92,94.07Z"/><path class="cls-4" d="M151.57,135.88a59.82,59.82,0,0,0,1.82,14.74,61.18,61.18,0,0,0,35.5,41.51,0,0,0,0,0,0,0,61.06,61.06,0,1,0-37.34-56.27Z"/><path class="cls-1" d="M258.84,175.89s0,0-.06,0a61,61,0,0,1-69.87,16.31,0,0,0,0,1,0,0,61.18,61.18,0,0,1-35.5-41.51,59.82,59.82,0,0,1-1.82-14.74A61.13,61.13,0,0,1,180,84.25l-.09-.13a16.33,16.33,0,0,1-18.72-26.77l0-.06A94,94,0,1,0,283.3,197.81l-.06-.06C275.69,191,264.28,180.87,258.84,175.89Z"/><path class="cls-2" d="M212.65,41.9a93.31,93.31,0,0,0-51.46,15.39l0,.06A16.33,16.33,0,0,1,187,70.7a15.9,15.9,0,0,1-2.42,8.52,12.51,12.51,0,0,0-.72,1.07,16.12,16.12,0,0,1-3.9,3.83l.09.13a61,61,0,0,1,78.74,91.59s0,0,.06,0c5.44,5,16.85,15.15,24.4,21.86l.06.06A93.92,93.92,0,0,0,212.65,41.9Z"/><path class="cls-5" d="M156.59,62.4a16.09,16.09,0,0,0-2.29,8.3A16.33,16.33,0,0,0,180,84.12a16.12,16.12,0,0,0,3.9-3.83,12.51,12.51,0,0,1,.72-1.07A15.9,15.9,0,0,0,187,70.7a16.33,16.33,0,0,0-30.4-8.3Z"/><path class="cls-1" d="M286.88,187.46a16.07,16.07,0,0,1-2.43,8.56,12.51,12.51,0,0,0-.72,1.07,16.4,16.4,0,0,1-29.68-9.63,16.14,16.14,0,0,1,2.3-8.34,16.4,16.4,0,0,1,30.53,8.34Z"/><path class="cls-1" d="M720,75a3.69,3.69,0,0,0,.28-.85,10.57,10.57,0,0,0,.39-1.36,20.51,20.51,0,0,0,.51-4.51,20.12,20.12,0,0,0-1.57-7.83c-.23-.52-.49-1.09-.77-1.6a19.76,19.76,0,0,0-2.55-3.76,17.84,17.84,0,0,0-5.46-4.18,5.45,5.45,0,0,0-2.54-.59H565.38A20.21,20.21,0,0,0,546.3,69.52v1.36l0,61.54,0,3a.76.76,0,0,0,0,.26,19.76,19.76,0,0,0,4.12,10.56,20,20,0,0,0,12,7.54,5.76,5.76,0,0,0,1.18.11H618.9a5.72,5.72,0,0,1,5.72,5.7l.06,38.27,0,5.2a5.73,5.73,0,0,1-5.74,5.73h-1l-12.89-.05a5.71,5.71,0,0,0-5.73,5.71v13.4a5.72,5.72,0,0,0,5.72,5.71l30.43,0a5.69,5.69,0,0,0,4.55-2.26l12.14-16a5.71,5.71,0,0,1,2.32-1.8h0a5.7,5.7,0,0,0,3.48-5.34l-.68-48.46c0-3.18.36-5.79,9.1-5.79h137c-3.33,0,3.73-1.18,4.66-3.2l1-13.14a5.71,5.71,0,0,0-5.18-8.11h-141a5.71,5.71,0,0,1-5.71-5.71V94.25l-1.76-4.14a19.51,19.51,0,0,0-5-3.38,20,20,0,0,0-7.52-1.94c-.36,0-.75,0-1.13,0s-.7,0-1,0h-.07a20.27,20.27,0,0,0-7.58,2,20.05,20.05,0,0,0-7.11,5.63A5.78,5.78,0,0,0,624.61,96v27.74a5.72,5.72,0,0,1-5.72,5.71H585a5.7,5.7,0,0,1-5.71-5.74l0-5.39.1-32.25,0-5.34a5.71,5.71,0,0,1,5.71-5.68h1"/><path class="cls-1" d="M570.56,168.83l-21.27,35.4a18.7,18.7,0,0,0,13.76,28.19h0a18.69,18.69,0,0,0,18.3-8.93l21.27-35.41a18.69,18.69,0,0,0-13.76-28.18h0A18.69,18.69,0,0,0,570.56,168.83Z"/><path class="cls-2" d="M688.11,221.1l80.3,0a15.43,15.43,0,0,0,14.06-21.72h0a15.41,15.41,0,0,0-14.1-9.13l-80.29,0A15.43,15.43,0,0,0,674,212h0A15.43,15.43,0,0,0,688.11,221.1Z"/><path class="cls-2" d="M752,45.73a16.81,16.81,0,0,1,7.55,2.1,14.44,14.44,0,0,1,5.87,5.75,16.46,16.46,0,0,1,2.15,8,14.81,14.81,0,0,1-2,7.81,15.52,15.52,0,0,1-5.79,5.78A15.09,15.09,0,0,1,752,77.38a14.28,14.28,0,0,1-7.8-2.14,15.79,15.79,0,0,1-5.71-5.83,16,16,0,0,1-2-7.9,16.16,16.16,0,0,1,2.1-8,14.32,14.32,0,0,1,5.83-5.79A15.87,15.87,0,0,1,752,45.73Z"/><path class="cls-6" d="M825.61,214.26a18.85,18.85,0,0,1,1.65-7.78v15.67A18.88,18.88,0,0,1,825.61,214.26Z"/><path class="cls-1" d="M862.55,214.37v.74a17.8,17.8,0,0,1-2.4,8.53,18.73,18.73,0,0,1-6.87,6.88,18.16,18.16,0,0,1-9.23,2.6h-.2a16.55,16.55,0,0,1-9.07-2.55,19.33,19.33,0,0,1-4.28-3.48V210.17h6v-13a18.18,18.18,0,0,1,7.52-1.65,20,20,0,0,1,9,2.5,17.29,17.29,0,0,1,7,6.82A19.93,19.93,0,0,1,862.55,214.37Z"/><path class="cls-1" d="M859.34,102.26a3,3,0,0,1,3,3l.23,109.82,0,0-18.7,18,0,0h-10.3a3,3,0,0,1-3-3V213.18a3,3,0,0,1,3-3h0a3,3,0,0,0,3-3V129.72a3,3,0,0,0-3-3h-3.25a3,3,0,0,0-3,3V222a3,3,0,0,1-2.07,2.86l-21.17,7a3,3,0,0,1-4-2.86V88a3,3,0,0,0-3-3h-3a3,3,0,0,1-3-3V64.31a3,3,0,0,1,3-3h15.28a3,3,0,0,0,2.83-2c.41-1.18.92-2.5,1.55-3.95,1-2.34,3-4.61,6.05-6.77a18,18,0,0,1,10.23-3.43A19.85,19.85,0,0,1,841,48.32a13.29,13.29,0,0,1,6.51,8.81L848,59a3,3,0,0,0,2.93,2.31H882a3,3,0,0,1,2.74,4.29l-8.2,17.62A3,3,0,0,1,873.77,85h-43.5a3,3,0,0,0-3,3V99.25a3,3,0,0,0,3,3Z"/><path class="cls-1" d="M944,73.16c0,.41,0,.81-.06,1.22v.13A14.82,14.82,0,0,1,942,81l-2,1.09H904a2.37,2.37,0,0,0-2.17,1.41l-2.53,5.84a2.38,2.38,0,0,1-2.17,1.42H872.37a2.37,2.37,0,0,1-2.16-3.33L886.12,52a2.35,2.35,0,0,1,2.15-1.39h24.59A2.36,2.36,0,0,1,915,53.91l-2,4.57a2.36,2.36,0,0,0,2.16,3.32h23.14l1.9.89a17,17,0,0,1,3.75,9v0C944,72.21,944,72.69,944,73.16Z"/><path class="cls-1" d="M920.51,214.67v.74a17.8,17.8,0,0,1-2.4,8.53,18.73,18.73,0,0,1-6.87,6.88,18.16,18.16,0,0,1-9.23,2.6h-.2a16.55,16.55,0,0,1-9.07-2.55,19.05,19.05,0,0,1-4.28-3.48V210.47h6v-13a18.18,18.18,0,0,1,7.52-1.65,20,20,0,0,1,9,2.5,17.25,17.25,0,0,1,7,6.83A19.86,19.86,0,0,1,920.51,214.67Z"/><path class="cls-1" d="M921.29,132.09v24.43a4.26,4.26,0,0,0,2.27,3.74q.83.45,1.65,1a9.31,9.31,0,0,1,1.71,1.38c.26.27.52.55.74.83a17,17,0,0,1,3.8,9.09v0c0,.47.06,1,.06,1.43s0,.8-.06,1.21v.13a17,17,0,0,1-.45,2.8,4.13,4.13,0,0,1-.31.8h0a4.22,4.22,0,0,1-3.8,2.39h-2.25a4.23,4.23,0,0,0-4.23,4.23v3.51l0,24.94a4.26,4.26,0,0,1-1.28,3.05l-15.62,15.16a4.21,4.21,0,0,1-2.94,1.2h-19.8a4.23,4.23,0,0,1-4.23-4.22v-14.5a4.23,4.23,0,0,1,4.22-4.24h8.54a4.23,4.23,0,0,0,4.23-4.23V185.56a4.23,4.23,0,0,0-4.23-4.23h-17.1A4.23,4.23,0,0,1,868,177.1V163.44a4.23,4.23,0,0,1,4.23-4.23h17.1a4.23,4.23,0,0,0,4.23-4.23V131.21a4.3,4.3,0,0,1,.89-2.6l5.62-7.2a4.23,4.23,0,0,0-3.34-6.83H873a4.23,4.23,0,0,1-4.23-4.23V96.6A4.23,4.23,0,0,1,873,92.38h47.56a17.57,17.57,0,0,1,8.86,3.1,9.59,9.59,0,0,1,2.45,2.21,16.91,16.91,0,0,1,3.8,9.08v1.49a4.23,4.23,0,0,1-.72,2.36L927,122.3l-5,7.43A4.23,4.23,0,0,0,921.29,132.09Z"/><path class="cls-1" d="M658.08,213.36a19.93,19.93,0,0,1-.52,4.51,12.42,12.42,0,0,1-.38,1.36,4.25,4.25,0,0,1-.29.85,20.38,20.38,0,0,1-6.1,8.79,20.15,20.15,0,0,1-12.93,4.68,20.36,20.36,0,0,1-4.18-.43,20.1,20.1,0,0,1-11.85-7.5c-.38-.49-.72-1-1.05-1.49a17.72,17.72,0,0,1-2-4,19.59,19.59,0,0,1-1.13-6.39,1.39,1.39,0,0,1,0-.33,4,4,0,0,1,0-.62v-.44a17.27,17.27,0,0,1,.52-3.55l6.74,0,0-10.94a19.26,19.26,0,0,1,4.27-2.73,20.08,20.08,0,0,1,7.58-2h.08c.33,0,.67,0,1,0s.77,0,1.13,0a20.26,20.26,0,0,1,14.19,7c0,.05.08.08.11.13a19.89,19.89,0,0,1,2.44,3.63c.29.52.54,1.08.78,1.6a18.83,18.83,0,0,1,.9,2.75A19.45,19.45,0,0,1,658.08,213.36Z"/><path class="cls-2" d="M32.73,50.83q.42,3.09.54,6.24V97.34C23.54,86.37,11.13,79.41.75,75.09V56.38h0V0C18.07,14.79,29.89,27.11,32.73,50.83Z"/></g></g></svg>